<svg width="13" height="13" viewBox="0 0 13 13" xmlns="http://www.w3.org/2000/svg">
<path d="M5.06204 10.5339C5.0789 10.4972 5.07274 10.4555 5.04631 10.4281L4.32946 9.68582L6.13826 7.93908C6.1782 7.90051 6.1813 7.83886 6.14519 7.80146L5.09849 6.71757C5.06238 6.68018 5.00065 6.68113 4.96072 6.7197L3.15191 8.46645L2.4323 7.72128C2.40588 7.69391 2.36441 7.6863 2.32729 7.70172C2.29015 7.71742 2.26453 7.75315 2.26255 7.79252L2.11945 10.5425C2.11815 10.5684 2.1271 10.593 2.14449 10.611C2.16189 10.629 2.18619 10.6388 2.21194 10.6386L4.96904 10.5955C5.00845 10.5948 5.04518 10.5706 5.06204 10.5339Z" fill="white"/>
<path d="M8.39108 1.84737C8.37423 1.88406 8.38039 1.92578 8.40681 1.95314L9.12367 2.69547L7.31487 4.44221C7.27493 4.48077 7.27182 4.54243 7.30793 4.57982L8.35463 5.66371C8.39075 5.70111 8.45247 5.70015 8.49241 5.66159L10.3012 3.91484L11.0208 4.66001C11.0472 4.68738 11.0887 4.69499 11.1258 4.67956C11.163 4.66387 11.1886 4.62813 11.1906 4.58877L11.3337 1.83879C11.335 1.81292 11.326 1.7883 11.3086 1.77028C11.2912 1.75226 11.2669 1.74246 11.2412 1.74272L8.48408 1.78583C8.44467 1.78645 8.40794 1.81066 8.39108 1.84737Z" fill="white"/>
</svg>
